<svg width="994" height="780" viewBox="0 0 994 780" fill="none" xmlns="http://www.w3.org/2000/svg">
<path d="M3 579.713V197C3 193.134 6.13401 190 10 190H800.029C805.697 190 809.015 183.615 805.757 178.976L689.791 13.887C685.386 7.6153 692.813 -0.157605 699.279 3.95849L988.259 187.937C990.278 189.222 991.5 191.449 991.5 193.842V576.5C991.5 580.366 988.366 583.5 984.5 583.5H203.28C197.75 583.5 194.404 589.609 197.381 594.269L307.456 766.543C311.517 772.898 304.039 780.297 297.727 776.171L6.16974 585.572C4.19202 584.279 3 582.076 3 579.713Z" stroke="#FFFEFE" stroke-width="5"/>
</svg>
